<svg width="168" height="83" viewBox="0 0 168 83" fill="none" xmlns="http://www.w3.org/2000/svg">
<path d="M15.4248 19.6191C15.3076 20.4277 15.0322 21.1426 14.5986 21.7637C14.1767 22.373 13.6611 22.877 13.0517 23.2754C12.4306 23.6855 11.7451 23.9961 10.9951 24.207C10.2568 24.4062 9.5068 24.5 8.74508 24.4883C7.88961 24.4883 7.11031 24.3535 6.40719 24.084C5.71578 23.8145 5.12399 23.4395 4.6318 22.959C4.13961 22.4668 3.75289 21.875 3.47164 21.1836C3.20211 20.4922 3.06734 19.7188 3.06734 18.8633H1.0107C0.95211 20 1.11031 21.0312 1.48531 21.957C1.87203 22.8711 2.41109 23.6504 3.1025 24.2949C3.80563 24.9512 4.6318 25.4551 5.58102 25.8066C6.54195 26.1582 7.57906 26.3398 8.69234 26.3516C9.71188 26.3633 10.7255 26.2227 11.7334 25.9297C12.7529 25.6367 13.6728 25.209 14.4931 24.6465C15.3134 24.0723 15.999 23.3633 16.5498 22.5195C17.1123 21.6641 17.4521 20.6855 17.5693 19.584C17.6748 18.5762 17.5693 17.6973 17.2529 16.9473C16.9482 16.1973 16.4853 15.4941 15.8642 14.8379C15.3134 14.252 14.5752 13.7188 13.6494 13.2383C12.7236 12.7578 11.8154 12.3594 10.9248 12.043C10.2685 11.832 9.58883 11.5684 8.8857 11.252C8.1943 10.9238 7.59078 10.543 7.07516 10.1094C6.60641 9.6875 6.24313 9.20117 5.98531 8.65039C5.73922 8.09961 5.67477 7.44922 5.79195 6.69922C5.89742 5.92578 6.16109 5.24023 6.58297 4.64258C7.00484 4.04492 7.51461 3.54688 8.11227 3.14844C8.70992 2.73828 9.37203 2.42773 10.0986 2.2168C10.8252 2.00586 11.5459 1.90625 12.2607 1.91797C13.0927 1.92969 13.8193 2.08203 14.4404 2.375C15.0615 2.66797 15.5771 3.06641 15.9873 3.57031C16.4091 4.07422 16.7255 4.66602 16.9365 5.3457C17.1474 6.01367 17.2529 6.74023 17.2529 7.52539H19.3271C19.3857 6.45898 19.2509 5.47461 18.9228 4.57227C18.6064 3.6582 18.1377 2.87305 17.5166 2.2168C16.9072 1.54883 16.1572 1.02734 15.2666 0.652344C14.3877 0.265625 13.4091 0.0664063 12.331 0.0546875C11.3466 0.0429687 10.3564 0.183594 9.36031 0.476562C8.37594 0.769531 7.47945 1.20898 6.67086 1.79492C5.86227 2.36914 5.18258 3.07227 4.6318 3.9043C4.09274 4.73633 3.77047 5.67969 3.665 6.73438C3.55953 7.76562 3.68258 8.66797 4.03414 9.44141C4.39742 10.2031 4.90133 10.8711 5.54586 11.4453C6.17867 12.0195 6.90524 12.5117 7.72555 12.9219C8.55758 13.332 9.38961 13.6836 10.2216 13.9766C10.913 14.2344 11.6103 14.5273 12.3134 14.8555C13.0283 15.1719 13.6435 15.5762 14.1591 16.0684C14.6279 16.4902 14.9795 16.9941 15.2138 17.5801C15.4599 18.166 15.5302 18.8457 15.4248 19.6191ZM41.5747 15.4531L47.4809 15.4707C48.5942 15.459 49.6665 15.2773 50.6977 14.9258C51.729 14.5625 52.6489 14.0527 53.4575 13.3965C54.2661 12.7402 54.9341 11.9492 55.4614 11.0234C56.0005 10.0977 56.3403 9.06055 56.4809 7.91211C56.6098 6.83398 56.5337 5.84375 56.2524 4.94141C55.9712 4.02734 55.5317 3.24219 54.9341 2.58594C54.3364 1.92969 53.5981 1.41406 52.7192 1.03906C51.8403 0.652344 50.8677 0.441406 49.8013 0.40625H42.1196L37.6899 26H39.7466L41.5747 15.4531ZM41.8911 13.6426L43.8774 2.2168H49.7661C50.5747 2.25195 51.2954 2.42188 51.9282 2.72656C52.561 3.03125 53.0825 3.43555 53.4927 3.93945C53.9028 4.45508 54.1899 5.05273 54.354 5.73242C54.5298 6.41211 54.5532 7.15039 54.4243 7.94727C54.2837 8.80273 54.0024 9.58203 53.5805 10.2852C53.1704 10.9766 52.6548 11.5742 52.0337 12.0781C51.4126 12.5703 50.7153 12.957 49.9419 13.2383C49.1802 13.5078 48.3716 13.6484 47.5161 13.6602L41.8911 13.6426ZM76.7598 24.1367L80.8555 0.40625H78.7812L74.3516 26H89.0645L89.3809 24.1367H76.7598ZM114.933 0.40625L114.617 2.30469H120.646L116.867 24.1191H110.82L110.503 26H124.9L125.216 24.1191H118.994L122.791 2.30469H129.013L129.33 0.40625H114.933ZM167.397 2.26953L167.714 0.40625H149.855L149.538 2.26953H157.466L153.353 26H155.374L159.47 2.26953H167.397ZM3.75289 82.1797L18.9228 54.4062H16.9013L1.73141 82.1797H3.75289ZM57.5708 56.2695L57.8872 54.4062H40.0278L39.7114 56.2695H47.6391L43.5259 80H45.5473L49.643 56.2695H57.5708ZM78.3242 54.4062L78.0078 56.3047H84.0371L80.2578 78.1191H74.2109L73.8945 80H88.291L88.6074 78.1191H82.3848L86.1816 56.3047H92.4043L92.7207 54.4062H78.3242ZM114.793 69.4531L120.699 69.4707C121.812 69.459 122.884 69.2773 123.916 68.9258C124.947 68.5625 125.867 68.0527 126.675 67.3965C127.484 66.7402 128.152 65.9492 128.679 65.0234C129.218 64.0977 129.558 63.0605 129.699 61.9121C129.828 60.834 129.751 59.8438 129.47 58.9414C129.189 58.0273 128.75 57.2422 128.152 56.5859C127.554 55.9297 126.816 55.4141 125.937 55.0391C125.058 54.6523 124.085 54.4414 123.019 54.4062H115.337L110.908 80H112.964L114.793 69.4531ZM115.109 67.6426L117.095 56.2168H122.984C123.793 56.252 124.513 56.4219 125.146 56.7266C125.779 57.0312 126.3 57.4355 126.71 57.9395C127.121 58.4551 127.408 59.0527 127.572 59.7324C127.748 60.4121 127.771 61.1504 127.642 61.9473C127.501 62.8027 127.22 63.582 126.798 64.2852C126.388 64.9766 125.873 65.5742 125.251 66.0781C124.63 66.5703 123.933 66.957 123.16 67.2383C122.398 67.5078 121.589 67.6484 120.734 67.6602L115.109 67.6426ZM161.86 73.6191C161.743 74.4277 161.468 75.1426 161.034 75.7637C160.612 76.373 160.097 76.877 159.487 77.2754C158.866 77.6855 158.181 77.9961 157.431 78.207C156.692 78.4062 155.942 78.5 155.181 78.4883C154.325 78.4883 153.546 78.3535 152.843 78.084C152.151 77.8145 151.56 77.4395 151.067 76.959C150.575 76.4668 150.189 75.875 149.907 75.1836C149.638 74.4922 149.503 73.7188 149.503 72.8633H147.446C147.388 74 147.546 75.0312 147.921 75.957C148.308 76.8711 148.847 77.6504 149.538 78.2949C150.241 78.9512 151.067 79.4551 152.017 79.8066C152.978 80.1582 154.015 80.3398 155.128 80.3516C156.147 80.3633 157.161 80.2227 158.169 79.9297C159.189 79.6367 160.108 79.209 160.929 78.6465C161.749 78.0723 162.435 77.3633 162.985 76.5195C163.548 75.6641 163.888 74.6855 164.005 73.584C164.11 72.5762 164.005 71.6973 163.689 70.9473C163.384 70.1973 162.921 69.4941 162.3 68.8379C161.749 68.252 161.011 67.7188 160.085 67.2383C159.159 66.7578 158.251 66.3594 157.36 66.043C156.704 65.832 156.024 65.5684 155.321 65.252C154.63 64.9238 154.026 64.543 153.511 64.1094C153.042 63.6875 152.679 63.2012 152.421 62.6504C152.175 62.0996 152.11 61.4492 152.228 60.6992C152.333 59.9258 152.597 59.2402 153.019 58.6426C153.44 58.0449 153.95 57.5469 154.548 57.1484C155.146 56.7383 155.808 56.4277 156.534 56.2168C157.261 56.0059 157.981 55.9062 158.696 55.918C159.528 55.9297 160.255 56.082 160.876 56.375C161.497 56.668 162.013 57.0664 162.423 57.5703C162.845 58.0742 163.161 58.666 163.372 59.3457C163.583 60.0137 163.689 60.7402 163.689 61.5254H165.763C165.821 60.459 165.687 59.4746 165.358 58.5723C165.042 57.6582 164.573 56.873 163.952 56.2168C163.343 55.5488 162.593 55.0273 161.702 54.6523C160.823 54.2656 159.845 54.0664 158.767 54.0547C157.782 54.043 156.792 54.1836 155.796 54.4766C154.812 54.7695 153.915 55.209 153.106 55.7949C152.298 56.3691 151.618 57.0723 151.067 57.9043C150.528 58.7363 150.206 59.6797 150.101 60.7344C149.995 61.7656 150.118 62.668 150.47 63.4414C150.833 64.2031 151.337 64.8711 151.981 65.4453C152.614 66.0195 153.341 66.5117 154.161 66.9219C154.993 67.332 155.825 67.6836 156.657 67.9766C157.349 68.2344 158.046 68.5273 158.749 68.8555C159.464 69.1719 160.079 69.5762 160.595 70.0684C161.064 70.4902 161.415 70.9941 161.649 71.5801C161.896 72.166 161.966 72.8457 161.86 73.6191Z" fill="white"/>
</svg>
